<?xml version="1.0" encoding="utf-8"?>
<!-- Generator: Adobe Illustrator 24.3.0, SVG Export Plug-In . SVG Version: 6.00 Build 0)  -->
<svg version="1.1" id="Layer_1" xmlns="http://www.w3.org/2000/svg" xmlns:xlink="http://www.w3.org/1999/xlink" x="0px" y="0px"
	 viewBox="0 0 144 144" style="enable-background:new 0 0 144 144;" xml:space="preserve">
<style type="text/css">
	.st0{fill:#FFFFFF;}
	.st1{fill:#A28671;}
	.st2{fill:#FCD884;}
	.st3{fill:#8EC154;}
	.st4{fill:#F37E79;}
	.st5{fill:#F598A7;}
	.st6{fill:#638037;}
</style>
<g>
	<g>
		<g>
			<g id="_x35__-_flower_x2C___floral_x2C___nature_x2C__spring">
				<g>
					<g>
						<path class="st1" d="M66.44,83.94c-0.4,0-0.81-0.3-1.01-0.71l-4.25-15.07c-0.71-2.63-1.92-4.96-3.54-6.98l0,0l0,0l-2.02-2.53
							c-1.72-2.12-2.43-4.96-1.82-7.69c0.61-2.73,2.33-4.96,4.86-6.27c1.32-0.61,2.63-1.01,4.05-1.01c1.42,0,2.83,0.3,4.05,1.01
							l1.11,0.51c6.88,3.44,11.83,9.71,13.45,17.3c0.1,0.51-0.2,1.11-0.81,1.21c-0.51,0.1-1.11-0.2-1.21-0.81
							c-1.52-6.98-6.07-12.75-12.44-15.88l-1.11-0.51c-1.01-0.51-2.12-0.71-3.24-0.71c-1.11,0-2.22,0.3-3.24,0.71
							c-1.92,1.01-3.34,2.73-3.74,4.86c-0.51,2.12,0,4.25,1.42,5.97l2.02,2.53l0,0l0,0c1.82,2.22,3.14,4.86,3.95,7.69l4.25,15.07
							c0.2,0.51-0.2,1.11-0.71,1.21C66.64,83.94,66.54,83.94,66.44,83.94z"/>
						<path class="st2" d="M93.04,50.05c1.42,0,2.53,1.11,2.53,2.53c0,1.42-1.11,2.53-2.53,2.53s-2.53-1.11-2.53-2.53
							C90.51,51.16,91.63,50.05,93.04,50.05z"/>
						<path class="st2" d="M47.52,85.45c1.42,0,2.53,1.11,2.53,2.53c0,1.42-1.11,2.53-2.53,2.53c-1.42,0-2.53-1.11-2.53-2.53
							C44.99,86.57,46.1,85.45,47.52,85.45z"/>
						<path class="st3" d="M65.63,79.69c2.83,3.34,4.25,7.59,3.95,12.04l-0.3,3.84v1.72c0,1.42-1.62,2.33-2.83,1.62
							c-0.1-0.1-0.2-0.1-0.3-0.2c-2.83-1.72-4.75-4.55-5.56-7.79c-0.61-2.43-1.92-6.98-3.44-7.99c-5.97-4.25-7.59-16.79-7.89-19.62
							c0-0.3-0.1-0.61-0.1-0.81c-0.3-1.42,1.72-2.43,2.63-1.11L65.63,79.69z"/>
						<path class="st3" d="M79.89,67.45c-0.3,0-0.61-0.2-0.71-0.4l-1.31-2.12c-0.41-0.61-0.1-1.32,0.51-1.52l3.74-1.32
							c0.61-0.2,1.32,0.2,1.32,0.91l0.2,2.43c0,0.4-0.1,0.71-0.4,0.91c-0.1,0.1-0.2,0.1-0.2,0.1l-1.62,0.61l-1.11,0.4
							C80.2,67.45,80.09,67.45,79.89,67.45z"/>
						<path class="st4" d="M94.05,76.45c0.4,1.52,0.61,3.03,0.51,4.65c-1.52-0.1-3.04-0.51-4.45-1.11
							c-1.92-0.81-3.74-2.12-5.16-3.74c-0.1-0.1-0.1-0.1-0.2-0.2c-1.32-1.62-2.33-3.44-2.83-5.26c-0.3-1.21-0.51-2.53-0.51-3.74
							l1.62-0.61c0.1,0,0.2-0.1,0.2-0.1c1.01,0.2,1.92,0.51,2.83,0.91c1.82,0.81,3.54,2.02,4.96,3.74
							C92.54,72.61,93.55,74.53,94.05,76.45z"/>
						<path class="st5" d="M81.92,70.79c0.51,1.92,1.42,3.74,2.83,5.26c0,0.1,0,0.2,0,0.3c-0.1,2.23-0.71,4.35-1.62,6.17
							c-0.71,1.42-1.72,2.63-2.83,3.64c-1.01-1.11-1.92-2.43-2.53-3.84c-0.81-1.92-1.21-4.05-1.11-6.27
							c0.1-2.12,0.61-4.25,1.52-5.97c0.51-0.91,1.01-1.82,1.72-2.63c0.2,0,0.3,0,0.51,0l1.11-0.4
							C81.41,68.26,81.61,69.47,81.92,70.79z"/>
						<path class="st6" d="M68.06,99.11c-0.41,0-0.81-0.3-0.91-0.71l-5.06-13.96c-0.2-0.51,0.1-1.11,0.61-1.31
							c0.51-0.2,1.11,0.1,1.31,0.61l5.06,13.96c0.2,0.51-0.1,1.11-0.61,1.32C68.26,99.11,68.16,99.11,68.06,99.11z"/>
						<path class="st5" d="M89.2,89c-0.2,0-0.5-0.1-0.71-0.2c-2.02-1.72-3.84-2.02-3.84-2.02c-0.51-0.1-0.91-0.61-0.91-1.11
							c0.1-0.51,0.61-0.91,1.11-0.91c0.1,0,2.53,0.3,4.96,2.53c0.4,0.4,0.51,1.01,0.1,1.42C89.81,88.89,89.5,89,89.2,89z"/>
						<path class="st5" d="M89.3,89c-0.1,0-0.1,0-0.2,0c-0.51-0.1-0.91-0.61-0.81-1.21c0.61-3.24,2.02-4.86,2.02-4.96
							c0.4-0.41,1.01-0.51,1.42-0.1c0.4,0.41,0.51,1.01,0.1,1.42c0,0-1.11,1.32-1.62,3.95C90.21,88.59,89.7,89,89.3,89z"/>
						<path class="st2" d="M82.93,99.31H55.11c-0.61,0-1.01-0.4-1.01-1.01c0-0.61,0.4-1.01,1.01-1.01h27.82
							c0.61,0,1.01,0.4,1.01,1.01C83.94,98.91,83.53,99.31,82.93,99.31z"/>
					</g>
				</g>
			</g>
			<g id="Layer_1_20_">
			</g>
		</g>
	</g>
</g>
</svg>
