<?xml version="1.0" encoding="utf-8"?>
<!-- Generator: Adobe Illustrator 24.3.0, SVG Export Plug-In . SVG Version: 6.00 Build 0)  -->
<svg version="1.1" id="Layer_1" xmlns="http://www.w3.org/2000/svg" xmlns:xlink="http://www.w3.org/1999/xlink" x="0px" y="0px"
	 viewBox="0 0 144 144" style="enable-background:new 0 0 144 144;" xml:space="preserve">
<style type="text/css">
	.st0{fill:#FFFFFF;}
	.st1{fill:#A28671;}
	.st2{fill:#8EC154;}
	.st3{fill:#F2D8C2;}
	.st4{fill:#FCD884;}
	.st5{fill:#F37E79;}
	.st6{fill:#F598A7;}
	.st7{fill:#D96766;}
	.st8{fill:#FFD8A8;}
</style>
<g>
	<g>
		<rect x="21.88" y="23.23" class="st0" width="101.16" height="101.16"/>
		<g>
			<g id="_x34__-_flower_x2C__floral_x2C___nature_x2C__spring">
				<g>
					<g>
						<path class="st1" d="M71.65,102.94c-0.61,0-1.01-0.4-1.01-1.01V70.27c0-0.61,0.4-1.01,1.01-1.01c0.61,0,1.01,0.41,1.01,1.01
							v31.66C72.66,102.43,72.25,102.94,71.65,102.94z"/>
						<path class="st2" d="M71.65,101.93C57.59,99.8,47.07,88.07,46.36,73.91c0-1.01-0.1-1.92-0.3-2.83
							c-0.4-2.73-1.01-8.09,0.2-7.08C66.69,81.19,59.2,91.1,71.65,101.93z"/>
						<path class="st2" d="M96.94,63.99c1.21-1.01,0.61,4.35,0.2,7.08c-0.1,0.91-0.2,1.92-0.3,2.83
							c-0.61,14.06-11.13,25.9-25.29,28.02C84.19,91.1,76.6,81.19,96.94,63.99z"/>
						<path class="st3" d="M51.42,48.82c1.42,0,2.53,1.11,2.53,2.53s-1.11,2.53-2.53,2.53c-1.42,0-2.53-1.11-2.53-2.53
							S50.1,48.82,51.42,48.82z"/>
						<path class="st3" d="M95.12,43.76c1.72,0,3.14,1.42,3.14,3.14s-1.42,3.14-3.14,3.14c-1.72,0-3.14-1.42-3.14-3.14
							S93.3,43.76,95.12,43.76z"/>
						<path class="st4" d="M74.18,46.29l0.2,0.2c-0.2,0.2-0.4,0.4-0.61,0.61c-0.61,0.91-1.21,1.92-1.82,2.83
							c-0.61-0.91-1.31-1.92-1.92-2.83c-0.2-0.4-0.51-0.61-0.91-0.81l0,0l2.53-2.53L74.18,46.29z"/>
						<path class="st5" d="M71.65,70.27c-2.73-1.82-4.55-5.36-4.55-9.41c0-3.44,2.33-7.18,4.75-10.92c0.61-0.91,1.21-1.92,1.82-2.83
							c0.2-0.3,0.41-0.51,0.61-0.61c1.01-0.71,2.53-0.51,3.24,0.61c2.93,4.65,6.68,9.41,6.68,13.76c0,5.87-3.84,10.72-8.6,10.72
							c-1.31,0-2.63-0.4-3.74-1.11C71.85,70.37,71.75,70.37,71.65,70.27z"/>
						<path class="st6" d="M67.09,60.86c0,4.05,1.82,7.69,4.55,9.41v0.3c-1.11,0.61-2.33,0.91-3.54,0.91c-4.75,0-8.6-4.75-8.6-10.72
							c0-4.35,3.74-9.1,6.68-13.76c0.71-1.01,1.92-1.31,2.93-0.81c0.3,0.2,0.61,0.4,0.91,0.81c0.61,1.01,1.21,1.92,1.92,2.83
							C69.52,53.68,67.09,57.42,67.09,60.86z"/>
						<path class="st7" d="M75.8,67.74c-1.11,0-1.92-0.3-2.02-0.41c-0.51-0.2-0.71-0.81-0.51-1.31c0.2-0.51,0.81-0.71,1.32-0.51
							c0,0,1.21,0.51,2.23,0c0.71-0.3,1.11-0.91,1.52-1.92c0.2-0.51,0.71-0.81,1.32-0.61c0.51,0.2,0.81,0.71,0.61,1.32
							c-0.5,1.52-1.42,2.63-2.63,3.14C77.01,67.64,76.4,67.74,75.8,67.74z"/>
						<path class="st8" d="M96.94,102.94H50.2c-0.61,0-1.01-0.4-1.01-1.01c0-0.61,0.41-1.01,1.01-1.01h46.84
							c0.61,0,1.01,0.41,1.01,1.01C97.95,102.43,97.54,102.94,96.94,102.94z"/>
					</g>
				</g>
			</g>
			<g id="Layer_1_16_">
			</g>
		</g>
	</g>
</g>
</svg>
