<?xml version="1.0" encoding="utf-8"?>
<!-- Generator: Adobe Illustrator 24.3.0, SVG Export Plug-In . SVG Version: 6.00 Build 0)  -->
<svg version="1.1" id="Layer_1" xmlns="http://www.w3.org/2000/svg" xmlns:xlink="http://www.w3.org/1999/xlink" x="0px" y="0px"
	 viewBox="0 0 144 144" style="enable-background:new 0 0 144 144;" xml:space="preserve">
<style type="text/css">
	.st0{fill:#FFFFFF;}
	.st1{fill:#586170;}
	.st2{fill:#8EC154;}
	.st3{fill:#F598A7;}
	.st4{fill:#FBE7F1;}
	.st5{fill:#A88E69;}
	.st6{fill:#FCD884;}
	.st7{fill:#F37E79;}
	.st8{fill:#D96766;}
</style>
<g>
	<g>
		<rect x="22.89" y="20.41" class="st0" width="101.16" height="101.16"/>
		<g>
			<g id="_x33_8_-_butterfly_and_flower_x2C__flower_x2C__butterfly">
				<g>
					<g>
						<path class="st1" d="M69.52,58.65c-0.3,0-0.51-0.1-0.71-0.3c-5.46-5.97-5.36-11.03-5.26-11.23c0-0.61,0.51-1.01,1.01-1.01
							c0.61,0,1.01,0.51,1.01,1.01c0,0.1-0.1,4.45,4.75,9.71c0.4,0.4,0.3,1.01-0.1,1.42C70.03,58.55,69.73,58.65,69.52,58.65z"/>
						<path class="st1" d="M64.47,47.52c-0.71,0-1.42-0.3-1.92-0.81c-1.01-1.01-1.01-2.73,0-3.74c0.51-0.51,1.21-0.81,1.92-0.81
							c0.71,0,1.42,0.3,1.92,0.81c0.51,0.51,0.81,1.21,0.81,1.82c0,0.71-0.3,1.42-0.81,1.82C65.88,47.22,65.17,47.52,64.47,47.52z
							 M64.47,44.29c-0.2,0-0.3,0.1-0.4,0.2c-0.2,0.2-0.2,0.61,0,0.91c0.1,0.1,0.3,0.2,0.4,0.2c0.2,0,0.3-0.1,0.4-0.2
							c0.1-0.1,0.2-0.3,0.2-0.4c0-0.2-0.1-0.3-0.2-0.4C64.77,44.29,64.67,44.29,64.47,44.29z"/>
						<path class="st1" d="M66.99,60.98c-0.2,0-0.4,0-0.51-0.1c-0.2-0.1-0.3-0.2-0.51-0.3c-6.47-4.15-7.69-8.8-7.69-9
							c-0.1-0.51,0.2-1.11,0.71-1.21c0.51-0.1,1.11,0.2,1.21,0.71c0,0.1,1.11,4.15,6.88,7.79c0.1,0.1,0.3,0.2,0.4,0.3
							c0.51,0.3,0.61,0.91,0.3,1.42C67.7,60.77,67.4,60.98,66.99,60.98z"/>
						<path class="st1" d="M58.4,52.18c-0.4,0-0.91-0.1-1.31-0.3c-1.32-0.71-1.72-2.33-1.01-3.64c0.51-0.81,1.42-1.42,2.33-1.42
							c0.4,0,0.91,0.1,1.31,0.3c1.31,0.71,1.72,2.33,1.01,3.64C60.32,51.57,59.41,52.18,58.4,52.18z M58.4,48.84
							c-0.2,0-0.51,0.1-0.61,0.3c-0.2,0.3-0.1,0.71,0.3,0.91c0.1,0.1,0.2,0.1,0.3,0.1c0.2,0,0.51-0.1,0.61-0.3
							c0.2-0.3,0.1-0.71-0.3-0.91C58.7,48.84,58.6,48.84,58.4,48.84z"/>
						<path class="st2" d="M52.93,91.12v0.1c-0.81,0.3-1.72,0.4-2.53,0.4c-1.11,0-2.12-0.3-3.03-1.01
							c-0.81-0.61-1.52-1.52-1.82-2.53c-0.3-0.81-0.4-1.62-0.4-2.63c0.91-0.3,1.82-0.4,2.63-0.4c1.01,0,2.02,0.4,2.93,1.01
							c0.91,0.61,1.52,1.52,1.82,2.53C52.73,89.5,52.93,90.31,52.93,91.12z"/>
						<path class="st2" d="M60.62,83.43c0,0.91-0.1,1.82-0.4,2.63c-0.4,1.01-1.01,1.82-1.82,2.53c-0.91,0.61-1.92,0.91-3.03,1.01
							c-0.81,0-1.62-0.1-2.53-0.4v-0.81c0.1-0.61,0.2-1.21,0.4-1.72c0.4-1.01,1.01-1.92,1.82-2.53c0.81-0.61,1.82-0.91,2.93-1.01
							C58.9,82.93,59.81,83.13,60.62,83.43z"/>
						<path class="st3" d="M101.89,83.64l-1.11,1.11c-0.71-0.71-1.72-0.71-2.43,0l-1.11-1.11c0.71-0.71,0.71-1.72,0-2.43l1.11-1.11
							c0.71,0.71,1.72,0.71,2.43,0l1.11,1.11C101.19,81.82,101.19,82.93,101.89,83.64z"/>
						<path class="st3" d="M98.45,44.59c1.42,0,2.53,1.11,2.53,2.53c0,1.42-1.11,2.53-2.53,2.53c-1.42,0-2.53-1.11-2.53-2.53
							C95.93,45.7,97.04,44.59,98.45,44.59z"/>
						<path class="st3" d="M65.68,59.46c-0.3-0.71-0.3-1.21,0-1.52c0.4-0.4,1.52-0.1,3.04,0.81c2.73,1.52,6.78,4.86,10.92,9.1
							c2.73,2.73,5.16,5.46,6.88,7.69c2.43,3.24,3.64,5.67,3.03,6.27c-0.71,0.71-3.03-0.51-6.17-2.93
							c-2.33-1.72-5.06-4.15-7.89-6.98c-4.25-4.25-7.59-8.4-9.1-11.03C66.08,60.37,65.78,59.96,65.68,59.46z"/>
						<path class="st4" d="M90.56,58.85c5.16,0.51,9.1,4.15,9.1,8.5c0,4.75-4.65,8.6-10.32,8.6c-1.01,0-1.92-0.1-2.83-0.3
							c-1.72-2.33-4.15-4.96-6.88-7.69c-4.15-4.15-8.29-7.49-10.92-9.1c0-0.4-0.1-0.91-0.1-1.32c0-7.28,4.96-13.25,11.03-13.25
							c6.07,0,11.03,5.87,11.03,13.15C90.67,57.94,90.67,58.35,90.56,58.85z"/>
						<path class="st5" d="M52.93,98.71c-0.61,0-1.01-0.4-1.01-1.01V80.6c0-0.61,0.4-1.01,1.01-1.01c0.61,0,1.01,0.4,1.01,1.01v17.1
							C53.94,98.3,53.44,98.71,52.93,98.71z"/>
						<path class="st6" d="M89.55,98.71H45.35c-0.61,0-1.01-0.4-1.01-1.01c0-0.61,0.4-1.01,1.01-1.01h44.31
							c0.61,0,1.01,0.4,1.01,1.01C90.56,98.3,90.16,98.71,89.55,98.71z"/>
						<path class="st7" d="M57.28,79.49c-1.31,0.71-2.83,1.21-4.45,1.21c-4.86,0-8.9-3.95-8.9-8.9v-6.68l2.73,2.73
							c0.91,0.91,2.43,0.91,3.34,0l1.11-1.11c0.91-0.91,2.43-0.91,3.34,0l1.11,1.11c0.91,0.91,2.43,0.91,3.34,0l2.73-2.73v6.68
							C61.73,75.04,60.01,77.87,57.28,79.49z"/>
						<g>
							<g>
								<path class="st8" d="M48.79,70.79c-0.51-0.1-1.11,0.2-1.21,0.71c-0.1,0.51,0.2,1.11,0.71,1.21c0.1,0,6.98,1.92,8.09,6.98
									l0,0l0,0c0,0.1,0,0.1,0.1,0.2c0.3-0.1,0.61-0.3,0.91-0.51c0.3-0.2,0.61-0.4,0.91-0.61C56.57,72.91,49.09,70.89,48.79,70.79z
									"/>
							</g>
						</g>
					</g>
				</g>
			</g>
			<g id="Layer_1_9_">
			</g>
		</g>
	</g>
</g>
</svg>
