<svg xmlns="http://www.w3.org/2000/svg" viewBox="0 0 48 48" fill="none" stroke="#414142" stroke-width="2.5" stroke-linecap="round" stroke-linejoin="round"><path d="M24 19v24"/>
<path fill="#B2D786" d="M24 34c-1.3-5-5.2-7.4-10.2-6.9.7 5.4 4.6 7.9 10.2 6.9z"/>
<path fill="#B2D786" d="M24 30c1.3-5 5.2-7.4 10.2-6.9-.7 5.4-4.6 7.9-10.2 6.9z"/>
<g fill="#FFFFFF">
<ellipse cx="24" cy="6" rx="3" ry="4.4"/>
<ellipse cx="24" cy="6" rx="3" ry="4.4" transform="rotate(51 24 12)"/>
<ellipse cx="24" cy="6" rx="3" ry="4.4" transform="rotate(103 24 12)"/>
<ellipse cx="24" cy="6" rx="3" ry="4.4" transform="rotate(154 24 12)"/>
<ellipse cx="24" cy="6" rx="3" ry="4.4" transform="rotate(206 24 12)"/>
<ellipse cx="24" cy="6" rx="3" ry="4.4" transform="rotate(257 24 12)"/>
<ellipse cx="24" cy="6" rx="3" ry="4.4" transform="rotate(309 24 12)"/>
</g>
<circle fill="#F5A623" cx="24" cy="12" r="3.4"/>
</svg>
