<?xml version="1.0" encoding="utf-8"?>
<!-- Generator: Adobe Illustrator 24.3.0, SVG Export Plug-In . SVG Version: 6.00 Build 0)  -->
<svg version="1.1" id="Layer_1" xmlns="http://www.w3.org/2000/svg" xmlns:xlink="http://www.w3.org/1999/xlink" x="0px" y="0px"
	 viewBox="0 0 48 48" style="enable-background:new 0 0 48 48;" xml:space="preserve">
<style type="text/css">
	.st0{fill:#FFFFFF;}
	.st1{fill:#75839C;}
	.st2{fill:#719A3F;}
	.st3{fill:#7FAF51;}
	.st4{fill:#3D3B3D;}
</style>
<g>
	<g>
		<g>
			<g id="_x31_150_x2C__Blowing_x2C__leaves_x2C__thanksgiving_x2C__wind">
				<g>
					<g>
						<path class="st1" d="M16.04,31.98c0.57,0,1.02,0.45,1.02,1.02c0,0.57-0.45,1.02-1.02,1.02c-0.57,0-1.02-0.45-1.02-1.02
							C15.02,32.42,15.47,31.98,16.04,31.98z"/>
						<path class="st1" d="M22.14,30.96c0.57,0,1.02,0.45,1.02,1.02c0,0.57-0.45,1.02-1.02,1.02c-0.57,0-1.02-0.45-1.02-1.02
							C21.12,31.41,21.57,30.96,22.14,30.96z"/>
						<path class="st1" d="M23.16,19.77c0.57,0,1.02,0.45,1.02,1.02c0,0.57-0.45,1.02-1.02,1.02c-0.57,0-1.02-0.45-1.02-1.02
							C22.14,20.22,22.59,19.77,23.16,19.77z"/>
						<path class="st2" d="M35.85,28.4v1.1c0,1.1-0.89,1.95-1.95,1.95h-1.1v-1.1c0-1.1,0.89-1.95,1.95-1.95H35.85z"/>
						<path class="st2" d="M32.8,13.67v1.1c0,1.1-0.89,1.95-1.95,1.95h-1.1v-1.1c0-1.1,0.89-1.95,1.95-1.95H32.8z"/>
						<path class="st2" d="M17.54,13.14v1.1c0,1.1-0.89,1.95-1.95,1.95h-1.1v-1.1c0-1.1,0.89-1.95,1.95-1.95H17.54z"/>
						<path class="st2" d="M24.17,25.79v1.1h-1.1c-1.1,0-1.95-0.89-1.95-1.95v-1.1h1.1C23.28,23.84,24.17,24.69,24.17,25.79z"/>
						<path class="st2" d="M15.67,28.03c0.33,1.02-0.2,2.12-1.22,2.48l-1.06,0.33l-0.37-1.02c-0.33-1.02,0.2-2.12,1.22-2.48
							l1.02-0.33L15.67,28.03z"/>
						<g>
							<path class="st3" d="M23.16,12.13c-1.95,0-3.58,1.59-3.58,3.58c0,1.38,1.14,2.56,2.56,2.56c1.42,0,2.56-1.14,2.56-2.56
								c0-0.28-0.24-0.53-0.53-0.53s-0.53,0.24-0.53,0.53c0,0.85-0.69,1.55-1.55,1.55c-0.85,0-1.5-0.73-1.5-1.55
								c0-1.38,1.14-2.56,2.56-2.56c0.69,0,1.3,0.28,1.79,0.73c0.49,0.49,0.73,1.14,0.73,1.79V36c0,0.28,0.24,0.53,0.53,0.53
								s0.53-0.24,0.53-0.53V15.66c0-0.94-0.37-1.83-1.06-2.52C24.99,12.49,24.09,12.13,23.16,12.13z"/>
							<path class="st3" d="M33.33,18.23c-0.94,0-1.83,0.37-2.52,1.06c-0.69,0.69-1.06,1.59-1.06,2.52v14.24
								c0,0.28,0.24,0.53,0.53,0.53c0.28,0,0.53-0.24,0.53-0.53V21.81c0-0.69,0.28-1.3,0.73-1.79c0.49-0.49,1.14-0.73,1.79-0.73
								c1.38,0,2.56,1.14,2.56,2.56c0,0.85-0.69,1.55-1.55,1.55c-0.85,0-1.55-0.77-1.55-1.59c0-0.28-0.24-0.53-0.53-0.53
								c-0.28,0-0.53,0.24-0.53,0.53c0,1.38,1.14,2.56,2.56,2.56c1.42,0,2.56-1.14,2.56-2.56C36.86,19.81,35.28,18.23,33.33,18.23z"
								/>
							<path class="st3" d="M16.04,18.23c-1.95,0-3.58,1.59-3.58,3.58c0,1.38,1.14,2.56,2.56,2.56c1.42,0,2.56-1.14,2.56-2.56
								c0-0.28-0.24-0.53-0.53-0.53c-0.28,0-0.53,0.24-0.53,0.53c0,0.85-0.69,1.55-1.55,1.55s-1.55-0.69-1.55-1.55
								c0-1.38,1.14-2.56,2.56-2.56c0.69,0,1.3,0.28,1.79,0.73c0.49,0.49,0.73,1.14,0.73,1.79V36c0,0.28,0.24,0.53,0.53,0.53
								c0.28,0,0.53-0.24,0.53-0.53V21.77c0-0.94-0.37-1.83-1.06-2.52C17.87,18.59,16.97,18.23,16.04,18.23z"/>
						</g>
						<path class="st4" d="M36.38,36.53H12.99c-0.28,0-0.53-0.24-0.53-0.53c0-0.28,0.24-0.53,0.53-0.53h23.39
							c0.28,0,0.53,0.24,0.53,0.53C36.86,36.29,36.62,36.53,36.38,36.53z"/>
					</g>
				</g>
			</g>
			<g id="Layer_1_24_">
			</g>
		</g>
	</g>
</g>
</svg>
