<svg xmlns="http://www.w3.org/2000/svg" viewBox="0 0 48 48" fill="none" stroke="#414142" stroke-width="2.5" stroke-linecap="round" stroke-linejoin="round"><path fill="#F5A623" d="M16.8 25.5c-3.6 1.8-5.3 5-5.3 9l6.3-3z"/>
<path fill="#F5A623" d="M31.2 25.5c3.6 1.8 5.3 5 5.3 9l-6.3-3z"/>
<path fill="#F5E961" d="M24 31c1.8 2.2 2.7 4.2 2.7 6-.9 1.6-1.8 2.7-2.7 3.5-.9-.8-1.8-1.9-2.7-3.5 0-1.8.9-3.8 2.7-6z"/>
<path fill="#F2F2F2" d="M24 4c5 4.2 7.5 9.8 7.5 16.2 0 4.3-1.1 8.2-3.2 11.3h-8.6c-2.1-3.1-3.2-7-3.2-11.3C16.5 13.8 19 8.2 24 4z"/>
<circle fill="#7CCBF0" cx="24" cy="17" r="3.8"/>
</svg>
