<?xml version="1.0" encoding="utf-8"?>
<!-- Generator: Adobe Illustrator 24.3.0, SVG Export Plug-In . SVG Version: 6.00 Build 0)  -->
<svg version="1.1" id="Layer_1" xmlns="http://www.w3.org/2000/svg" xmlns:xlink="http://www.w3.org/1999/xlink" x="0px" y="0px"
	 viewBox="0 0 48 48" style="enable-background:new 0 0 48 48;" xml:space="preserve">
<style type="text/css">
	.st0{fill:#FBDBBE;}
	.st1{fill:#C27A76;}
	.st2{fill:#925B58;}
	.st3{fill:#F0C53F;}
	.st4{fill:#CAA834;}
	.st5{fill:#F5F6F6;}
	.st6{fill:#4B3B26;}
	.st7{fill:#4C3B26;}
	.st8{fill:#4C3C27;}
	.st9{fill:#4D3C27;}
	.st10{fill:#4E3D27;}
	.st11{fill:#4E3D28;}
	.st12{fill:#4F3D28;}
	.st13{fill:#4F3E28;}
	.st14{fill:#503E29;}
	.st15{fill:#503F29;}
	.st16{fill:#513F29;}
	.st17{fill:#52402A;}
	.st18{fill:#53412A;}
	.st19{fill:#53412B;}
	.st20{fill:#54422B;}
	.st21{fill:#55422B;}
	.st22{fill:#55432C;}
	.st23{fill:#56432C;}
	.st24{fill:#56442C;}
	.st25{fill:#57442D;}
	.st26{fill:#58452D;}
	.st27{fill:#59462E;}
	.st28{fill:#5A462E;}
	.st29{fill:#5A472E;}
	.st30{fill:#5B472F;}
	.st31{fill:#5B482F;}
	.st32{fill:#5C482F;}
	.st33{fill:#5D4930;}
	.st34{fill:#5E4A30;}
	.st35{fill:#5F4A31;}
	.st36{fill:#5F4B31;}
	.st37{fill:#9E9283;}
</style>
<g>
	<g>
		<polygon class="st0" points="24.42,36.82 24.42,46.24 9.01,46.24 8.76,36.83 		"/>
	</g>
	<g>
		<path class="st1" d="M24.42,36.82c-0.07-2.4-15.76-2.19-15.66,0C8.86,38.97,24.48,39.1,24.42,36.82z"/>
	</g>
	<g>
		<path class="st2" d="M23.19,36.83c0.38-1.66-12.98-1.49-13.16,0C9.89,38.02,22.83,38.39,23.19,36.83z"/>
	</g>
</g>
<g>
	<g>
		<path class="st3" d="M19.66,12.42L19.72,6L13.2,7.4l2.48,30.45c0.52,0.02,1.06,0.02,1.58,0.02l-0.65-25.68L19.66,12.42z"/>
	</g>
</g>
<g>
	<g>
		<g>
			<path class="st4" d="M17.14,12.22l2.52,0.2L19.72,6l-2.73,0.58C16.35,8.34,16.38,10.57,17.14,12.22z"/>
		</g>
		<g>
			<g>
				<path class="st3" d="M24.61,3.48l-4.97,0.87c-3.12,1.86-2.93,8.68,0.82,9.67l5.06,0.22L24.61,3.48z"/>
			</g>
		</g>
		<g>
			<path class="st4" d="M31.25,8.66c0.07,3.01-2.31,5.51-5.31,5.58c-3.01,0.07-5.51-2.31-5.58-5.32c-0.07-3.01,2.31-5.51,5.32-5.58
				C28.68,3.27,31.18,5.65,31.25,8.66z"/>
		</g>
		<g>
			<path class="st5" d="M30.68,8.68c0.07,2.7-2.07,4.93-4.76,5c-2.7,0.07-4.93-2.07-5-4.76c-0.07-2.7,2.07-4.93,4.76-5
				C28.38,3.85,30.62,5.98,30.68,8.68z"/>
		</g>
	</g>
</g>
<g>
	<polygon class="st5" points="36.53,9.9 32.94,9.06 32.73,9.71 35.7,11.69 	"/>
</g>
<g>
	<polygon class="st5" points="36.56,4.56 32.58,6.4 32.76,7.1 37.21,6.4 	"/>
</g>
<g>
	<polygon class="st5" points="33.21,1.06 31.54,4.39 32.02,4.74 34.72,2.3 	"/>
</g>
<g>
	<ellipse transform="matrix(0.0303 -0.9995 0.9995 0.0303 16.2289 34.32)" class="st6" cx="25.8" cy="8.8" rx="3.2" ry="3.2"/>
	<ellipse transform="matrix(0.0311 -0.9995 0.9995 0.0311 16.208 34.3122)" class="st7" cx="25.8" cy="8.8" rx="3.19" ry="3.19"/>
	<ellipse transform="matrix(0.0319 -0.9995 0.9995 0.0319 16.1859 34.3038)" class="st8" cx="25.8" cy="8.8" rx="3.17" ry="3.17"/>
	<ellipse transform="matrix(0.0329 -0.9995 0.9995 0.0329 16.1624 34.2949)" class="st9" cx="25.8" cy="8.8" rx="3.15" ry="3.15"/>
	<ellipse transform="matrix(0.0339 -0.9994 0.9994 0.0339 16.1373 34.2854)" class="st10" cx="25.8" cy="8.8" rx="3.14" ry="3.14"/>
	<ellipse transform="matrix(0.0349 -0.9994 0.9994 0.0349 16.1105 34.2753)" class="st11" cx="25.8" cy="8.8" rx="3.12" ry="3.12"/>
	<ellipse transform="matrix(0.036 -0.9994 0.9994 0.036 16.0819 34.2644)" class="st12" cx="25.8" cy="8.8" rx="3.1" ry="3.1"/>
	<ellipse transform="matrix(0.0372 -0.9993 0.9993 0.0372 16.0511 34.2526)" class="st13" cx="25.8" cy="8.8" rx="3.09" ry="3.09"/>
	<ellipse transform="matrix(0.0385 -0.9993 0.9993 0.0385 16.0181 34.2399)" class="st14" cx="25.8" cy="8.8" rx="3.07" ry="3.07"/>
	<ellipse transform="matrix(0.0399 -0.9992 0.9992 0.0399 15.9824 34.2262)" class="st15" cx="25.8" cy="8.8" rx="3.05" ry="3.05"/>
	<ellipse transform="matrix(0.0414 -0.9991 0.9991 0.0414 15.9439 34.2113)" class="st16" cx="25.8" cy="8.8" rx="3.04" ry="3.04"/>
	<ellipse transform="matrix(0.0431 -0.9991 0.9991 0.0431 15.9021 34.195)" class="st17" cx="25.8" cy="8.8" rx="3.02" ry="3.02"/>
	<ellipse transform="matrix(0.0449 -0.999 0.999 0.0449 15.8566 34.1772)" class="st17" cx="25.8" cy="8.8" rx="3" ry="3"/>
	<ellipse transform="matrix(0.0468 -0.9989 0.9989 0.0468 15.8069 34.1577)" class="st18" cx="25.8" cy="8.8" rx="2.99" ry="2.99"/>
	<ellipse transform="matrix(0.049 -0.9988 0.9988 0.049 15.7523 34.1361)" class="st19" cx="25.8" cy="8.8" rx="2.97" ry="2.97"/>
	<ellipse transform="matrix(0.0514 -0.9987 0.9987 0.0514 15.6922 34.1122)" class="st20" cx="25.8" cy="8.8" rx="2.95" ry="2.95"/>
	<ellipse transform="matrix(0.054 -0.9985 0.9985 0.054 15.6257 34.0855)" class="st21" cx="25.8" cy="8.8" rx="2.94" ry="2.94"/>
	<ellipse transform="matrix(0.0569 -0.9984 0.9984 0.0569 15.5516 34.0556)" class="st22" cx="25.8" cy="8.8" rx="2.92" ry="2.92"/>
	<ellipse transform="matrix(0.0602 -0.9982 0.9982 0.0602 15.4685 34.0217)" class="st23" cx="25.8" cy="8.8" rx="2.9" ry="2.9"/>
	<ellipse transform="matrix(0.0639 -0.998 0.998 0.0639 15.3749 33.9832)" class="st24" cx="25.8" cy="8.8" rx="2.89" ry="2.89"/>
	<ellipse transform="matrix(0.0681 -0.9977 0.9977 0.0681 15.2685 33.9389)" class="st25" cx="25.8" cy="8.8" rx="2.87" ry="2.87"/>
	<ellipse transform="matrix(0.073 -0.9973 0.9973 0.073 15.1466 33.8875)" class="st26" cx="25.8" cy="8.8" rx="2.85" ry="2.85"/>
	<ellipse transform="matrix(0.0786 -0.9969 0.9969 0.0786 15.0056 33.8271)" class="st26" cx="25.8" cy="8.8" rx="2.84" ry="2.84"/>
	<ellipse transform="matrix(0.0852 -0.9964 0.9964 0.0852 14.8404 33.7552)" class="st27" cx="25.8" cy="8.8" rx="2.82" ry="2.82"/>
	<ellipse transform="matrix(0.093 -0.9957 0.9957 0.093 14.6447 33.6683)" class="st28" cx="25.8" cy="8.8" rx="2.8" ry="2.8"/>
	<ellipse transform="matrix(0.1024 -0.9947 0.9947 0.1024 14.409 33.5613)" class="st29" cx="25.8" cy="8.8" rx="2.79" ry="2.79"/>
	<ellipse transform="matrix(0.1141 -0.9935 0.9935 0.1141 14.1202 33.4264)" class="st30" cx="25.8" cy="8.8" rx="2.77" ry="2.77"/>
	<circle class="st31" cx="25.8" cy="8.8" r="2.75"/>
	<circle class="st32" cx="25.8" cy="8.8" r="2.74"/>
	<circle class="st33" cx="25.8" cy="8.8" r="2.72"/>
	<circle class="st33" cx="25.8" cy="8.8" r="2.7"/>
	<circle class="st34" cx="25.8" cy="8.8" r="2.69"/>
	<circle class="st35" cx="25.8" cy="8.8" r="2.67"/>
	<circle class="st36" cx="25.8" cy="8.8" r="2.65"/>
</g>
<ellipse transform="matrix(0.0303 -0.9995 0.9995 0.0303 16.2289 34.32)" class="st6" cx="25.8" cy="8.8" rx="1.87" ry="1.87"/>
<g>
	<circle class="st37" cx="26.8" cy="9.77" r="0.72"/>
</g>
<g>
	<circle class="st37" cx="24.56" cy="7.57" r="0.47"/>
</g>
<g>
	<path class="st22" d="M8.76,36.83C8.76,36.83,8.76,36.83,8.76,36.83l-0.02,9.41h2.51l0.89-2.98c0,0-1.7,0.34-1.32-0.98
		c0.37-1.31,1.65,0,1.65,0l1.29-3.91C11.01,38.15,8.81,37.63,8.76,36.83z"/>
</g>
<g>
	<g>
		<path class="st22" d="M16.47,43.76c-0.5,0-0.91-0.16-1.23-0.48c-0.63-0.64-0.62-1.69-0.62-1.74l0.44,0.01l-0.22,0l0.22,0
			c0,0.01-0.01,0.92,0.49,1.43c0.23,0.23,0.54,0.35,0.91,0.35c0.38,0,0.69-0.12,0.91-0.35c0.5-0.51,0.49-1.42,0.49-1.43l0.44-0.01
			c0,0.04,0.01,1.1-0.62,1.74C17.38,43.59,16.97,43.76,16.47,43.76L16.47,43.76z"/>
	</g>
</g>
<g>
	<g>
		<path class="st22" d="M21.63,43.76c-0.5,0-0.91-0.16-1.23-0.48c-0.63-0.64-0.62-1.69-0.62-1.74l0.44,0.01l-0.22,0l0.22,0
			c0,0.01-0.01,0.92,0.49,1.43c0.23,0.23,0.54,0.35,0.91,0.35c0.38,0,0.68-0.12,0.91-0.35c0.5-0.51,0.49-1.42,0.49-1.43l0.44-0.01
			c0,0.04,0.01,1.1-0.62,1.74C22.55,43.59,22.13,43.76,21.63,43.76L21.63,43.76z"/>
	</g>
</g>
</svg>
