<?xml version="1.0" encoding="utf-8"?>
<!-- Generator: Adobe Illustrator 24.3.0, SVG Export Plug-In . SVG Version: 6.00 Build 0)  -->
<svg version="1.1" id="Layer_1" xmlns="http://www.w3.org/2000/svg" xmlns:xlink="http://www.w3.org/1999/xlink" x="0px" y="0px"
	 viewBox="0 0 144 144" style="enable-background:new 0 0 144 144;" xml:space="preserve">
<style type="text/css">
	.st0{fill:#FFFFFF;}
	.st1{fill:#6E923D;}
	.st2{fill:#8EC154;}
	.st3{fill:#947A5B;}
</style>
<g>
	<g>
		<rect x="25.04" y="25.06" class="st0" width="101.16" height="101.16"/>
		<g>
			<g id="_x34_7_-_Ecology_x2C__leaf_x2C__nature_x2C__spring">
				<g>
					<g>
						<path class="st1" d="M55.79,92.34c7.89,4.65,18.51,3.34,25.8-3.95c5.56-5.56,6.58-16.39,7.99-26.81
							c4.75,0.61,10.82,1.32,15.07,1.32c-6.78,11.63-11.73,29.13-21.34,34.6C73.59,102.96,61.76,100.63,55.79,92.34z"/>
						<path class="st2" d="M52.15,89.5c-7.79-7.79-7.38-21.04,1.11-29.44c7.69-7.69,25.8-6.88,38.54-10.22
							c-1.01,3.64-1.62,7.69-2.12,11.84c-1.42,10.42-2.43,21.24-7.99,26.81c-7.18,7.18-17.91,8.6-25.8,3.95
							C54.47,91.63,53.26,90.62,52.15,89.5z"/>
						<path class="st3" d="M46.58,96.18c-0.3,0-0.51-0.1-0.71-0.3c-0.4-0.4-0.4-1.01,0-1.42l33.89-33.99c0.4-0.41,1.01-0.41,1.42,0
							c0.4,0.4,0.4,1.01,0,1.42L47.29,95.88C47.09,96.08,46.78,96.18,46.58,96.18z"/>
						<path class="st3" d="M80.88,68.77H74.7c-0.61,0-1.01-0.41-1.01-1.01c0-0.61,0.4-1.01,1.01-1.01h6.17
							c0.61,0,1.01,0.4,1.01,1.01C81.89,68.36,81.48,68.77,80.88,68.77z"/>
						<path class="st3" d="M78.85,77.06H66.51c-0.61,0-1.01-0.41-1.01-1.01c0-0.61,0.4-1.01,1.01-1.01h12.34
							c0.61,0,1.01,0.4,1.01,1.01C79.86,76.66,79.36,77.06,78.85,77.06z"/>
						<path class="st3" d="M74.7,85.25H58.22c-0.61,0-1.01-0.4-1.01-1.01c0-0.61,0.4-1.01,1.01-1.01H74.7c0.61,0,1.01,0.4,1.01,1.01
							C75.72,84.85,75.31,85.25,74.7,85.25z"/>
						<path class="st3" d="M74.7,68.77c-0.61,0-1.01-0.41-1.01-1.01v-6.17c0-0.61,0.4-1.01,1.01-1.01c0.61,0,1.01,0.4,1.01,1.01
							v6.17C75.72,68.36,75.31,68.77,74.7,68.77z"/>
						<path class="st3" d="M66.51,77.06c-0.61,0-1.01-0.41-1.01-1.01V63.71c0-0.61,0.4-1.01,1.01-1.01c0.61,0,1.01,0.4,1.01,1.01
							v12.34C67.52,76.56,67.02,77.06,66.51,77.06z"/>
						<path class="st3" d="M58.22,85.25c-0.61,0-1.01-0.4-1.01-1.01V67.75c0-0.61,0.4-1.01,1.01-1.01c0.61,0,1.01,0.4,1.01,1.01
							v16.49C59.23,84.75,58.82,85.25,58.22,85.25z"/>
					</g>
				</g>
			</g>
			<g id="Layer_1_12_">
			</g>
		</g>
	</g>
</g>
</svg>
