<?xml version="1.0" encoding="utf-8"?>
<!-- Generator: Adobe Illustrator 24.3.0, SVG Export Plug-In . SVG Version: 6.00 Build 0)  -->
<svg version="1.1" id="Layer_1" xmlns="http://www.w3.org/2000/svg" xmlns:xlink="http://www.w3.org/1999/xlink" x="0px" y="0px"
	 viewBox="0 0 144 144" style="enable-background:new 0 0 144 144;" xml:space="preserve">
<style type="text/css">
	.st0{fill:#C39A6C;}
	.st1{fill:#414142;}
	.st2{fill:#B2D786;}
	.st3{fill:#434143;}
</style>
<g>
	<g>
		<path class="st0" d="M104.94,112.89v-0.51c0-3.69-3-6.69-6.69-6.69h-41.9c-3.69,0-6.69,3-6.69,6.69v0.13
			c0,3.67,2.96,6.66,6.63,6.69l41.9,0.37C101.91,119.61,104.94,116.61,104.94,112.89z"/>
		<path class="st1" d="M98.26,121.12L98.26,121.12c-0.01,0-0.07,0-0.08,0l-41.9-0.37c-4.5-0.04-8.16-3.73-8.16-8.23v-0.14
			c0-4.54,3.69-8.23,8.23-8.23h41.9c4.54,0,8.23,3.69,8.23,8.23v0.51c0,2.2-0.86,4.27-2.41,5.82
			C102.52,120.26,100.45,121.12,98.26,121.12z M56.36,107.23c-2.84,0-5.15,2.31-5.15,5.15v0.14c0,2.82,2.29,5.13,5.11,5.15
			l41.9,0.37l0.05,1.54v-1.54c1.37,0,2.67-0.54,3.64-1.51c0.97-0.97,1.51-2.27,1.51-3.64v-0.51c0-2.84-2.31-5.15-5.15-5.15H56.36z"
			/>
	</g>
	<g>
		<g>
			<path class="st1" d="M96.2,53.82c-0.61-0.42-1.61-0.42-2.22,0l-0.18,0.12c-8.35,5.74-14,12.83-16.56,20.55
				c-2.56-7.72-8.21-14.81-16.56-20.55l-0.18-0.12c-0.61-0.42-1.61-0.42-2.22,0c-0.61,0.42-0.61,1.1,0,1.52l0.18,0.12
				c11.1,7.63,17.21,17.77,17.21,28.56v21.48c0,0.59,0.7,1.08,1.57,1.08s1.57-0.48,1.57-1.08V84.03c0-10.79,6.11-20.93,17.21-28.56
				l0.18-0.12C96.81,54.93,96.81,54.25,96.2,53.82z"/>
		</g>
		<g>
			<g>
				<path class="st2" d="M98.04,53.07l-4.18,3.96c5.94-0.13,11.16-1.35,15.63-3.64L98.04,53.07z"/>
			</g>
			<g>
				<path class="st2" d="M123.17,38.9l-9.86-0.28l-5.55,5.26l12.27,0.34c0.86-1.2,1.65-2.48,2.39-3.84
					C122.68,39.88,122.93,39.39,123.17,38.9z"/>
			</g>
			<g>
				<path class="st2" d="M115.38,36.65l8.68,0.24c1.89-4.53,2.73-8.77,3.08-11.38L115.38,36.65z"/>
			</g>
			<g>
				<path class="st2" d="M125.76,24.04c-2.56,0.21-6.7,0.77-11.19,2.32l-0.5,8.75L125.76,24.04z"/>
			</g>
			<g>
				<path class="st2" d="M96.65,51.59l0.6-11.94c-2.71,4.44-4.3,9.75-4.78,15.91L96.65,51.59z"/>
			</g>
			<g>
				<path class="st2" d="M107.04,29.91l-0.63,12.44l5.5-5.21l0.57-9.99c-0.62,0.25-1.25,0.52-1.87,0.82
					C109.36,28.55,108.17,29.21,107.04,29.91z"/>
			</g>
			<g>
				<path class="st2" d="M105.67,45.85l-5.55,5.25l12.61,0.35c2.12-1.47,4.04-3.21,5.75-5.25L105.67,45.85z"/>
			</g>
			<g>
				<path class="st2" d="M98.78,49.57l5.5-5.21l0.66-13.05c-2.1,1.54-3.93,3.29-5.51,5.24L98.78,49.57z"/>
			</g>
			<g>
				<path class="st3" d="M125.66,38.34c3.48-7.92,3.78-15.07,3.79-15.41c0,0,0,0,0-0.01c0,0,0-0.01,0-0.01
					c0-0.13-0.02-0.25-0.06-0.37c0,0,0,0,0-0.01c-0.05-0.12-0.12-0.24-0.21-0.34l0,0l0,0l0,0c-0.18-0.19-0.43-0.31-0.7-0.32
					c0,0,0,0,0,0c0,0,0,0-0.01,0c-0.38-0.01-9.37-0.14-18.64,4.21c-1.35,0.63-2.74,1.39-4.14,2.28c-0.12,0.05-0.23,0.12-0.33,0.22
					c-7.37,4.83-14.61,13.6-15.06,29.44c0,0.13,0.02,0.26,0.06,0.38c0,0,0,0.01,0,0.01c0.05,0.12,0.12,0.24,0.21,0.34l0,0l0,0
					c0.01,0.01,0.03,0.02,0.05,0.03c0.08,0.08,0.17,0.15,0.27,0.19c0.12,0.05,0.24,0.08,0.37,0.09c0.01,0,0.02,0,0.02,0
					c9.61,0.27,16.76-2.12,22.07-5.63c0.19-0.06,0.35-0.17,0.47-0.32c4.93-3.4,8.22-7.76,10.39-11.78
					C124.74,40.34,125.22,39.34,125.66,38.34C125.66,38.35,125.66,38.35,125.66,38.34z M124.07,36.89l-8.68-0.24l11.77-11.14
					C126.79,28.12,125.96,32.36,124.07,36.89z M120.02,44.22l-12.27-0.34l5.55-5.26l9.86,0.28c-0.24,0.49-0.49,0.99-0.75,1.48
					C121.68,41.74,120.88,43.02,120.02,44.22z M98.04,53.07l11.45,0.32c-4.47,2.29-9.69,3.51-15.63,3.64L98.04,53.07z M125.76,24.04
					L114.07,35.1l0.5-8.75C119.06,24.81,123.2,24.24,125.76,24.04z M111.92,37.14l-5.5,5.21l0.63-12.44
					c1.13-0.7,2.31-1.36,3.57-1.95c0.63-0.3,1.25-0.56,1.87-0.82L111.92,37.14z M104.94,31.32l-0.66,13.05l-5.5,5.21l0.65-13.01
					C101.01,34.61,102.84,32.85,104.94,31.32z M96.65,51.59l-4.19,3.96c0.48-6.15,2.08-11.47,4.78-15.91L96.65,51.59z M112.73,51.46
					l-12.61-0.35l5.55-5.25l12.81,0.36C116.77,48.25,114.85,49.99,112.73,51.46z"/>
			</g>
		</g>
		<g>
			<g>
				<path class="st2" d="M58.23,55.21l4.82,4.63c-6.9-0.2-12.95-1.66-18.12-4.36L58.23,55.21z"/>
			</g>
			<g>
				<path class="st2" d="M29.18,38.52l11.46-0.23l6.4,6.15l-14.25,0.29c-0.98-1.4-1.9-2.89-2.74-4.48
					C29.73,39.67,29.45,39.1,29.18,38.52z"/>
			</g>
			<g>
				<path class="st2" d="M38.23,35.99l-10.08,0.2c-2.16-5.28-3.09-10.21-3.48-13.24L38.23,35.99z"/>
			</g>
			<g>
				<path class="st2" d="M26.3,21.25c2.97,0.26,7.77,0.96,12.98,2.8l0.5,10.16L26.3,21.25z"/>
			</g>
			<g>
				<path class="st2" d="M59.85,53.5l-0.59-13.87c3.1,5.18,4.91,11.36,5.41,18.51L59.85,53.5z"/>
			</g>
			<g>
				<path class="st2" d="M47.98,28.23l0.62,14.45l-6.34-6.1l-0.57-11.61c0.72,0.3,1.44,0.62,2.17,0.96
					C45.3,26.64,46.67,27.41,47.98,28.23z"/>
			</g>
			<g>
				<path class="st2" d="M49.43,46.75l6.4,6.15l-14.65,0.3c-2.45-1.72-4.66-3.76-6.63-6.15L49.43,46.75z"/>
			</g>
			<g>
				<path class="st2" d="M57.39,51.14l-6.34-6.1L50.4,29.88c2.42,1.8,4.53,3.85,6.35,6.14L57.39,51.14z"/>
			</g>
			<g>
				<path class="st3" d="M26.29,37.86c0.5,1.15,1.05,2.32,1.66,3.49c2.48,4.69,6.26,9.78,11.96,13.77c0.14,0.17,0.33,0.31,0.55,0.38
					c6.13,4.12,14.41,6.96,25.57,6.73c0.01,0,0.02,0,0.03,0c0.15-0.01,0.29-0.04,0.43-0.1c0.12-0.05,0.22-0.13,0.32-0.22
					c0.02-0.02,0.04-0.02,0.05-0.04l0,0l0,0c0.11-0.11,0.19-0.25,0.25-0.39c0,0,0-0.01,0-0.01c0.05-0.14,0.08-0.29,0.08-0.44
					c-0.38-18.39-8.71-28.64-17.23-34.31c-0.11-0.11-0.24-0.19-0.38-0.25c-1.61-1.05-3.22-1.93-4.78-2.68
					c-10.72-5.13-21.16-5.05-21.6-5.05c0,0,0,0-0.01,0c0,0,0,0-0.01,0c-0.32,0.01-0.6,0.14-0.82,0.36c0,0,0,0,0,0l0,0l0,0
					c-0.11,0.11-0.19,0.25-0.25,0.39c0,0,0,0,0,0.01c-0.05,0.14-0.08,0.28-0.08,0.43c0,0,0,0.01,0,0.01c0,0,0,0,0,0.01
					C22.04,20.33,22.33,28.64,26.29,37.86C26.29,37.86,26.29,37.86,26.29,37.86z M24.67,22.95l13.56,13.04l-10.08,0.2
					C25.99,30.91,25.06,25.98,24.67,22.95z M30.04,40.25c-0.3-0.58-0.59-1.15-0.86-1.73l11.46-0.23l6.4,6.15l-14.25,0.29
					C31.8,43.33,30.88,41.84,30.04,40.25z M63.05,59.84c-6.9-0.2-12.95-1.66-18.12-4.36l13.3-0.27L63.05,59.84z M39.28,24.04
					l0.5,10.16L26.3,21.25C29.27,21.51,34.07,22.2,39.28,24.04z M41.68,24.97c0.72,0.3,1.44,0.62,2.17,0.96
					c1.46,0.7,2.82,1.47,4.13,2.3l0.62,14.45l-6.34-6.1L41.68,24.97z M56.75,36.02l0.64,15.12l-6.34-6.1L50.4,29.88
					C52.83,31.69,54.94,33.74,56.75,36.02z M59.26,39.63c3.1,5.18,4.91,11.36,5.41,18.51l-4.83-4.64L59.26,39.63z M34.55,47.05
					l14.88-0.3l6.4,6.15l-14.65,0.3C38.74,51.48,36.52,49.44,34.55,47.05z"/>
			</g>
		</g>
	</g>
</g>
</svg>
