<?xml version="1.0" encoding="utf-8"?>
<!-- Generator: Adobe Illustrator 24.3.0, SVG Export Plug-In . SVG Version: 6.00 Build 0)  -->
<svg version="1.1" id="Layer_1" xmlns="http://www.w3.org/2000/svg" xmlns:xlink="http://www.w3.org/1999/xlink" x="0px" y="0px"
	 viewBox="0 0 144 144" style="enable-background:new 0 0 144 144;" xml:space="preserve">
<style type="text/css">
	.st0{fill:#508440;}
	.st1{fill:#434143;}
	.st2{fill:#B2D786;}
</style>
<g>
	<g>
		<path class="st0" d="M13.71,129.65l-0.06-0.06c-1.75-1.73-1.75-4.54,0-6.28l18.49-18.36l6.38,6.34l-18.49,18.36
			C18.29,131.39,15.46,131.39,13.71,129.65z"/>
		<path class="st1" d="M16.87,132.79c-1.69,0-3.27-0.65-4.47-1.84c-2.53-2.51-2.53-6.49-0.06-8.93l18.49-18.36
			c0.72-0.72,1.89-0.72,2.61,0l6.38,6.34c0.72,0.72,0.72,1.88,0,2.59l-18.49,18.36C20.14,132.14,18.56,132.79,16.87,132.79z
			 M32.14,107.55l-17.18,17.06c-1.02,1.02-1.02,2.67,0,3.68c1.12,1.11,2.78,1.04,3.77,0.06l17.18-17.06L32.14,107.55z"/>
	</g>
	<g>
		<path class="st2" d="M27.25,116.15c101.9,0,102.65-101.91,102.65-101.91S27.25,14.99,27.25,116.15z"/>
		<path class="st1" d="M27.25,117.99c-1.02,0-1.85-0.82-1.85-1.83c0-53.19,28.46-78.59,52.34-90.53
			c25.75-12.88,51.08-13.21,52.14-13.21c0.54-0.02,0.97,0.19,1.32,0.54c0.35,0.35,0.54,0.82,0.54,1.31
			c-0.01,1.06-0.34,26.2-13.31,51.77C106.41,89.73,80.83,117.99,27.25,117.99z M127.98,16.15c-6.41,0.35-27.68,2.27-48.68,12.8
			c-32.81,16.45-49.69,45.16-50.18,85.35c40.48-0.5,69.4-17.25,85.97-49.82C125.69,43.64,127.63,22.51,127.98,16.15z"/>
	</g>
	<g>
		<path class="st1" d="M27.25,117.99c-0.47,0-0.95-0.18-1.31-0.54c-0.72-0.72-0.72-1.88,0-2.59L128.59,12.95
			c0.72-0.72,1.89-0.72,2.61,0c0.72,0.72,0.72,1.88,0,2.59L28.55,117.45C28.19,117.81,27.72,117.99,27.25,117.99z"/>
	</g>
	<g>
		<path class="st1" d="M86.99,58.68c-0.5,0-0.98-0.2-1.32-0.56c-0.35-0.36-0.54-0.84-0.52-1.33l0.97-33.75
			c0.03-1.01,0.88-1.86,1.9-1.78c1.02,0.03,1.82,0.87,1.79,1.89l-0.92,31.86l31.71-0.01h0c1.02,0,1.85,0.82,1.85,1.83
			c0,1.01-0.83,1.83-1.85,1.83L86.99,58.68L86.99,58.68z"/>
	</g>
	<g>
		<path class="st1" d="M65.89,79.62c-0.5,0-0.97-0.2-1.32-0.55c-0.35-0.35-0.54-0.83-0.53-1.32l0.97-43.73
			c0.02-1.01,0.84-1.84,1.89-1.79c1.02,0.02,1.83,0.86,1.81,1.87l-0.93,41.86l41.42-0.01h0c1.02,0,1.85,0.82,1.85,1.83
			c0,1.01-0.83,1.83-1.85,1.83L65.89,79.62L65.89,79.62z"/>
	</g>
	<g>
		<path class="st1" d="M44.79,100.57c-0.5,0-0.97-0.2-1.32-0.55c-0.35-0.35-0.54-0.83-0.53-1.32l0.97-44.52
			c0.02-1.01,0.81-1.83,1.89-1.79c1.02,0.02,1.83,0.86,1.81,1.87L46.68,96.9l41.86-0.01h0c1.02,0,1.85,0.82,1.85,1.83
			c0,1.01-0.83,1.83-1.85,1.83L44.79,100.57L44.79,100.57z"/>
	</g>
</g>
</svg>
