<?xml version="1.0" encoding="utf-8"?>
<!-- Generator: Adobe Illustrator 24.3.0, SVG Export Plug-In . SVG Version: 6.00 Build 0)  -->
<svg version="1.1" id="Layer_1" xmlns="http://www.w3.org/2000/svg" xmlns:xlink="http://www.w3.org/1999/xlink" x="0px" y="0px"
	 viewBox="0 0 144 144" style="enable-background:new 0 0 144 144;" xml:space="preserve">
<style type="text/css">
	.st0{fill:#FFFFFF;}
	.st1{fill:#6E923D;}
	.st2{fill:#8EC154;}
	.st3{fill:#9C7F5D;}
	.st4{fill:#A88E69;}
	.st5{fill:#B79C79;}
	.st6{fill:#FAF287;}
	.st7{fill:#F2D8C2;}
	.st8{fill:#FCD884;}
	.st9{fill:#F598A7;}
	.st10{fill:#F38394;}
</style>
<g>
	<g>
		<rect x="26.24" y="24.56" class="st0" width="101.16" height="101.16"/>
		<g>
			<g id="_x34_8_-_flower_x2C___floral_x2C___nature_x2C__spring">
				<g>
					<g>
						<path class="st1" d="M74.6,74.84v0.1c-1.01,0.3-1.92,0.51-2.83,0.51c-1.21,0-2.43-0.41-3.44-1.11
							c-1.01-0.71-1.72-1.72-2.12-2.83c-0.3-0.91-0.51-1.92-0.51-2.93c1.01-0.3,2.02-0.51,3.03-0.41c1.21,0.1,2.33,0.41,3.34,1.11
							c1.01,0.71,1.72,1.72,2.12,2.93C74.4,72.91,74.6,73.82,74.6,74.84z"/>
						<path class="st2" d="M83.4,65.93c0,1.01-0.1,2.02-0.51,2.93c-0.4,1.11-1.11,2.12-2.12,2.83s-2.23,1.11-3.44,1.11
							c-0.91,0-1.92-0.1-2.83-0.4V71.5c0.1-0.71,0.2-1.32,0.4-1.92c0.4-1.21,1.11-2.12,2.12-2.93c1.01-0.71,2.12-1.11,3.34-1.11
							C81.38,65.43,82.39,65.63,83.4,65.93z"/>
						<path class="st3" d="M74.6,80.2c-0.61,0-1.01-0.4-1.01-1.01V62.8c0-0.61,0.4-1.01,1.01-1.01c0.61,0,1.01,0.41,1.01,1.01v16.39
							C75.61,79.79,75.1,80.2,74.6,80.2z"/>
						<polygon class="st4" points="88.46,84.24 82.19,103.26 65.7,103.26 59.42,84.24 						"/>
						<path class="st5" d="M88.46,79.19c1.42,0,2.53,1.11,2.53,2.53c0,0.71-0.3,1.32-0.71,1.82c-0.4,0.51-1.11,0.71-1.82,0.71H59.42
							c-1.42,0-2.53-1.11-2.53-2.53c0-0.71,0.3-1.32,0.71-1.82c0.51-0.51,1.11-0.71,1.82-0.71H74.6H88.46z"/>
						<path class="st6" d="M93.52,55.21c1.42,0,2.53,1.11,2.53,2.53s-1.11,2.53-2.53,2.53c-1.42,0-2.53-1.21-2.53-2.53
							C90.99,56.32,92.1,55.21,93.52,55.21z"/>
						<path class="st6" d="M53.05,89.3c1.42,0,2.53,1.11,2.53,2.53s-1.11,2.53-2.53,2.53c-1.42,0-2.53-1.11-2.53-2.53
							S51.64,89.3,53.05,89.3z"/>
						<path class="st7" d="M56.9,64.01c1.42,0,2.53,1.11,2.53,2.53s-1.11,2.53-2.53,2.53c-1.42,0-2.53-1.11-2.53-2.53
							S55.48,64.01,56.9,64.01z"/>
						<path class="st8" d="M101.1,104.27H58.11c-0.61,0-1.01-0.4-1.01-1.01c0-0.61,0.4-1.01,1.01-1.01h42.99
							c0.61,0,1.01,0.41,1.01,1.01C102.11,103.77,101.71,104.27,101.1,104.27z"/>
						<path class="st9" d="M79.56,61.38c-1.52,0.81-3.24,1.32-5.06,1.32c-5.56,0-10.12-4.55-10.12-10.12v-7.59l3.14,3.14
							c1.01,1.01,2.73,1.01,3.84,0l1.31-1.32c1.01-1.01,2.73-1.01,3.84,0l1.32,1.32c1.01,1.01,2.73,1.01,3.84,0l3.14-3.14v7.59
							C84.71,56.42,82.59,59.66,79.56,61.38z"/>
						<g>
							<g>
								<path class="st10" d="M69.74,51.67c-0.51-0.1-1.11,0.2-1.21,0.71c-0.1,0.51,0.2,1.11,0.71,1.21c0.1,0,7.99,2.23,9.41,7.99
									v0.1c0,0.1,0,0.1,0,0.2c0.3-0.1,0.61-0.3,0.91-0.51c0.3-0.2,0.61-0.4,0.91-0.61C78.64,54.1,70.15,51.77,69.74,51.67z"/>
							</g>
						</g>
					</g>
				</g>
			</g>
			<g id="Layer_1_3_">
			</g>
		</g>
	</g>
</g>
</svg>
