<svg viewBox="0 0 24 24" xmlns="http://www.w3.org/2000/svg" fill="none" stroke="#F97316" stroke-width="1.7" stroke-linecap="round" stroke-linejoin="round">
  <circle cx="12" cy="4.3" r="1.2" fill="#F97316" stroke="none"/>
  <path d="M9.5,7.5 C8,7.5 6.8,6 8,4.6"/>
  <path d="M14.5,7.5 C16,7.5 17.2,6 16,4.6"/>
  <path d="M8.5,8.5 C6.8,10.5 6,12.7 6,15.3 C6,18.6 8.7,21 12,21 C15.3,21 18,18.6 18,15.3 C18,12.7 17.2,10.5 15.5,8.5 Z"/>
  <path d="M12,10.3 L12,17.3"/>
  <path d="M10.2,11.8 C10.2,10.9 11,10.3 12,10.3 C13,10.3 13.8,10.9 13.8,11.8 C13.8,12.7 13,13.3 12,13.3 C11,13.3 10.2,13.9 10.2,14.8 C10.2,15.7 11,16.3 12,16.3 C13,16.3 13.8,15.7 13.8,14.8"/>
</svg>
