<svg viewBox="0 0 24 24" xmlns="http://www.w3.org/2000/svg" fill="none" stroke="#F97316" stroke-width="1.7" stroke-linecap="round" stroke-linejoin="round">
  <path d="M15.5,3.5 C10.8,3.8 7,7.6 7,12.3 C7,17.1 10.9,21 15.7,21 C17.4,21 19,20.5 20.3,19.6 C18.4,20.1 16.3,19.6 14.8,18.1 C12.5,15.8 12.5,12.1 14.8,9.8 C16.3,8.3 18.4,7.8 20.3,8.3 C19,6.2 17.4,4.4 15.5,3.5 Z"/>
  <path d="M4.5,5 L4.5,8"/>
  <path d="M3,6.5 L6,6.5"/>
  <path d="M3.3,15.5 L3.3,17.7"/>
  <path d="M2.2,16.6 L4.4,16.6"/>
</svg>
