<svg xmlns="http://www.w3.org/2000/svg" viewBox="0 0 24 24" fill="none" stroke="#E8590C" stroke-width="2.5" stroke-linecap="round" stroke-linejoin="round"><path d="M12 1.5c2.9 2.4 4.4 5.7 4.4 9.4 0 2.5-.65 4.8-1.9 6.6h-5C8.25 15.7 7.6 13.4 7.6 10.9c0-3.7 1.5-7 4.4-9.4z"/>
<circle cx="12" cy="9" r="2.2"/>
<path d="M7.7 14.2c-2.1 1-3.1 2.9-3.1 5.1l3.7-1.8z"/>
<path d="M16.3 14.2c2.1 1 3.1 2.9 3.1 5.1l-3.7-1.8z"/>
<path d="M12 17.5c1 1.1 1.5 2.1 1.5 3-.5.85-1 1.45-1.5 1.9-.5-.45-1-1.05-1.5-1.9 0-.9.5-1.9 1.5-3z"/>
</svg>
