<svg viewBox="0 0 24 24" xmlns="http://www.w3.org/2000/svg" fill="none" stroke="#F97316" stroke-width="1.7" stroke-linecap="round" stroke-linejoin="round">
  <path d="M8.5,20 L8.5,13.5 C7.6,13.5 7,12.7 7,11.9 L7,6.5 C7,5.8 7.6,5.2 8.2,5.2 C8.9,5.2 9.4,5.8 9.4,6.5 L9.4,10.5"/>
  <path d="M9.4,10.5 L9.4,4.7 C9.4,4 10,3.4 10.7,3.4 C11.4,3.4 12,4 12,4.7 L12,10.3"/>
  <path d="M12,10.3 L12,5.4 C12,4.7 12.6,4.1 13.3,4.1 C14,4.1 14.6,4.7 14.6,5.4 L14.6,11"/>
  <path d="M14.6,11 L14.6,7.6 C14.6,6.9 15.2,6.3 15.9,6.3 C16.6,6.3 17.2,6.9 17.2,7.6 L17.2,13.5 C17.2,17.1 14.6,20 11.3,20 L8.5,20 Z"/>
  <path d="M19,8.3 C20,9.6 20,11.4 19,12.7"/>
  <path d="M21,6.5 C22.6,8.8 22.6,12.2 21,14.5"/>
</svg>
