<svg viewBox="0 0 24 24" xmlns="http://www.w3.org/2000/svg" fill="none" stroke="#F97316" stroke-width="1.7" stroke-linecap="round" stroke-linejoin="round">
  <path d="M9.5,20 L9.5,13.5 C8.6,13.5 8,12.7 8,11.9 L8,6.5 C8,5.8 8.6,5.2 9.2,5.2 C9.9,5.2 10.4,5.8 10.4,6.5 L10.4,10.5"/>
  <path d="M10.4,10.5 L10.4,4.7 C10.4,4 11,3.4 11.7,3.4 C12.4,3.4 13,4 13,4.7 L13,10.3"/>
  <path d="M13,10.3 L13,5.4 C13,4.7 13.6,4.1 14.3,4.1 C15,4.1 15.6,4.7 15.6,5.4 L15.6,11"/>
  <path d="M15.6,11 L15.6,7.6 C15.6,6.9 16.2,6.3 16.9,6.3 C17.6,6.3 18.2,6.9 18.2,7.6 L18.2,13.5 C18.2,17.1 15.6,20 12.3,20 L9.5,20 Z"/>
  <path d="M5,9 L6.6,10.3"/>
  <path d="M4.3,13 L6.3,13"/>
</svg>
